<svg width="20" height="22" viewBox="0 0 20 22" fill="none" xmlns="http://www.w3.org/2000/svg">
<path d="M7.95405 1.20997C9.30298 0.927104 10.6958 0.926423 12.045 1.20797C12.1349 1.80126 12.3574 2.36666 12.6958 2.86215C13.0343 3.35764 13.4801 3.77048 14 4.06997C14.5196 4.3705 15.1002 4.55004 15.6987 4.59522C16.2973 4.64041 16.8983 4.55009 17.457 4.33097C18.3753 5.35903 19.0709 6.56601 19.5 7.87597C19.0314 8.25055 18.6532 8.72592 18.3935 9.26676C18.1338 9.80761 17.9993 10.4 18 11C18 12.264 18.586 13.391 19.502 14.124C19.0704 15.4328 18.3739 16.6389 17.456 17.667C16.8974 17.448 16.2966 17.3578 15.6983 17.403C15.0999 17.4481 14.5195 17.6276 14 17.928C13.4805 18.2274 13.0351 18.6399 12.6968 19.1351C12.3585 19.6302 12.1361 20.1951 12.046 20.788C10.6973 21.0715 9.30439 21.0729 7.95505 20.792C7.86559 20.1982 7.64335 19.6322 7.30487 19.1361C6.96639 18.6401 6.52038 18.2268 6.00005 17.927C5.48041 17.6266 4.89975 17.4472 4.30124 17.4022C3.70272 17.3572 3.10176 17.4477 2.54305 17.667C1.62465 16.6386 0.929052 15.4313 0.500047 14.121C0.96844 13.7466 1.34651 13.2716 1.60618 12.7311C1.86586 12.1906 2.00048 11.5986 2.00005 10.999C2.00054 10.3989 1.86575 9.80634 1.60571 9.26549C1.34568 8.72463 0.96707 8.24935 0.498047 7.87497C0.929715 6.56609 1.62616 5.36007 2.54405 4.33197C3.1027 4.55093 3.70352 4.64117 4.30184 4.59598C4.90017 4.5508 5.48061 4.37135 6.00005 4.07097C6.51959 3.77157 6.96503 3.35899 7.30331 2.86388C7.64158 2.36876 7.864 1.80381 7.95405 1.21097V1.20997ZM10 14C10.7957 14 11.5588 13.6839 12.1214 13.1213C12.684 12.5587 13 11.7956 13 11C13 10.2043 12.684 9.44126 12.1214 8.87865C11.5588 8.31604 10.7957 7.99997 10 7.99997C9.2044 7.99997 8.44134 8.31604 7.87873 8.87865C7.31612 9.44126 7.00005 10.2043 7.00005 11C7.00005 11.7956 7.31612 12.5587 7.87873 13.1213C8.44134 13.6839 9.2044 14 10 14V14Z" fill="#1F2127" fill-opacity="0.7"/>
</svg>
